<svg xmlns="http://www.w3.org/2000/svg" viewBox="0 0 82.91 82.91"><defs><style>.cls-1{fill:#f39800;}.cls-2{fill:none;stroke:#f39800;stroke-miterlimit:10;stroke-width:3px;}</style></defs><title>アセット 1</title><g id="レイヤー_2" data-name="レイヤー 2"><g id="レイヤー_1-2" data-name="レイヤー 1"><path class="cls-1" d="M41.49,10.95A21.17,21.17,0,0,0,24.37,44.57a23.33,23.33,0,0,0,2.52,2.67c.6.58,1.17,1.12,1.57,1.58a6.82,6.82,0,0,1,1.41,4.83c0,1.67.07,4,3,4h17.3c2.9,0,2.94-2.29,3-4a6.81,6.81,0,0,1,1.41-4.83c.4-.45,1-1,1.57-1.58a23.22,23.22,0,0,0,2.52-2.67A21.17,21.17,0,0,0,41.49,10.95Zm-4.66,31.9H35.62A1,1,0,0,1,34.51,42V34.28c0-1.55.82-2.52,2.14-2.52a1.64,1.64,0,0,1,1,.39,4.32,4.32,0,0,0-.77,2.43c0,1.44.53,2.33,1.38,2.33s1.38-.89,1.38-2.33a4.33,4.33,0,0,0-.77-2.43,1.52,1.52,0,0,1,2,0,4.32,4.32,0,0,0-.77,2.43c0,1.44.53,2.33,1.38,2.33s1.38-.89,1.38-2.33a4.33,4.33,0,0,0-.77-2.43,1.52,1.52,0,0,1,2,0,4.32,4.32,0,0,0-.77,2.43c0,1.44.53,2.33,1.38,2.33s1.38-.89,1.38-2.33a4.33,4.33,0,0,0-.77-2.43,1.63,1.63,0,0,1,1-.39c1.27,0,2.1,1,2.1,2.6v7.71a1,1,0,0,1-1.11.85H46.15a1.89,1.89,0,0,0-2,1.75v11.1h-5.3V44.59A1.89,1.89,0,0,0,36.83,42.84Zm1-8.26a3.36,3.36,0,0,1,.48-1.72,3.36,3.36,0,0,1,.48,1.72c0,.78-.22,1.43-.48,1.43S37.79,35.36,37.79,34.58Zm3.24,0a3.35,3.35,0,0,1,.48-1.72A3.36,3.36,0,0,1,42,34.58c0,.78-.22,1.43-.48,1.43S41,35.36,41,34.58Zm3.24,0a3.35,3.35,0,0,1,.48-1.72,3.36,3.36,0,0,1,.48,1.72c0,.78-.22,1.43-.48,1.43S44.27,35.36,44.27,34.58Zm12.85,8.91a22.34,22.34,0,0,1-2.31,2.43c-.63.6-1.22,1.17-1.67,1.68a8.55,8.55,0,0,0-1.87,6c0,2-.16,2.15-1.13,2.15H45V44.67a1,1,0,0,1,1.11-.85h1.21a1.89,1.89,0,0,0,2-1.75V34.36c0-2.09-1.2-3.5-3-3.5a2.5,2.5,0,0,0-1.62.62,2.43,2.43,0,0,0-3.24,0,2.43,2.43,0,0,0-3.24,0,2.49,2.49,0,0,0-1.62-.62c-1.51,0-3,1.06-3,3.42V42a1.89,1.89,0,0,0,2,1.75h1.21a1,1,0,0,1,1.11.85V55.77h-5.1c-1,0-1.1-.12-1.13-2.15a8.54,8.54,0,0,0-1.87-6c-.45-.51-1-1.08-1.67-1.68a22.34,22.34,0,0,1-2.31-2.43,19.33,19.33,0,1,1,31.27,0Z"/><path class="cls-1" d="M51,59.73A1.06,1.06,0,0,0,50,58.67H33a1.06,1.06,0,0,0-.32,2.07V63a1.06,1.06,0,0,0,0,2v2.27a1.06,1.06,0,0,0,0,2v1.2a2,2,0,0,0,1.68,2c3.25,0,3.46,2,7.15,2s3.9-2,7.15-2a2,2,0,0,0,1.68-2V69.3a1.06,1.06,0,0,0,0-2V65a1.06,1.06,0,0,0,0-2V60.74A1.06,1.06,0,0,0,51,59.73Z"/><circle class="cls-2" cx="41.46" cy="41.46" r="39.96"/></g></g></svg>