<svg xmlns="http://www.w3.org/2000/svg" viewBox="0 0 73.69 73.69"><defs><style>.cls-1{fill:#a92424;}.cls-2{fill:none;stroke:#a92424;stroke-miterlimit:10;stroke-width:3px;}</style></defs><title>アセット 1</title><g id="レイヤー_2" data-name="レイヤー 2"><g id="レイヤー_1-2" data-name="レイヤー 1"><path class="cls-1" d="M55.08,16.32a49.6,49.6,0,0,0-12.74-2.67s0-.06,0-.1a5.5,5.5,0,0,0-11,0s0,.06,0,.1a49.61,49.61,0,0,0-12.74,2.67,1.63,1.63,0,0,0-1.11,1.81v3.62h38.7V18.13A1.63,1.63,0,0,0,55.08,16.32ZM36.84,11.17a2.38,2.38,0,0,1,2.37,2.28c-.77,0-1.56,0-2.38,0s-1.6,0-2.37,0A2.38,2.38,0,0,1,36.84,11.17Z"/><path class="cls-1" d="M18.53,24.18l1.82,34a5.38,5.38,0,0,0,5.29,5H48a5.38,5.38,0,0,0,5.29-5l1.82-34ZM29.84,54.27a2,2,0,1,1-4,0V31.07a2,2,0,1,1,4,0Zm9,0a2,2,0,1,1-4,0V31.07a2,2,0,0,1,4,0Zm9,0a2,2,0,1,1-4,0V31.07a2,2,0,1,1,4,0Z"/><circle class="cls-2" cx="36.84" cy="36.84" r="35.34"/></g></g></svg>