<svg xmlns="http://www.w3.org/2000/svg" viewBox="0 0 73 73"><defs><style>.cls-1{fill:#a92424;}.cls-2{fill:none;stroke:#a92424;stroke-miterlimit:10;stroke-width:3px;}</style></defs><title>delete_button</title><g id="レイヤー_2" data-name="レイヤー 2"><g id="レイヤー_1-2" data-name="レイヤー 1"><g id="レイヤー_2-2" data-name="レイヤー 2"><g id="レイヤー_1-2-2" data-name="レイヤー 1-2"><path class="cls-1" d="M54.56,16.18a49.12,49.12,0,0,0-12.62-2.64v-.1a5.45,5.45,0,1,0-10.89,0v.1a49.13,49.13,0,0,0-12.62,2.64A1.61,1.61,0,0,0,17.34,18v3.59H55.66V18A1.61,1.61,0,0,0,54.56,16.18ZM36.5,11.08a2.36,2.36,0,0,1,2.35,2.26h-4.7A2.36,2.36,0,0,1,36.5,11.08Z"/><path class="cls-1" d="M18.37,24l1.8,33.67a5.33,5.33,0,0,0,5.24,5H47.55a5.33,5.33,0,0,0,5.24-5L54.59,24Zm11.2,29.8a2,2,0,0,1-4,0v-23a2,2,0,1,1,4,0Zm8.91,0a2,2,0,0,1-4,0v-23a2,2,0,0,1,4,0Zm8.91,0a2,2,0,0,1-4,0v-23a2,2,0,1,1,4,0Z"/><circle class="cls-2" cx="36.5" cy="36.5" r="35"/></g></g></g></g></svg>