<svg xmlns="http://www.w3.org/2000/svg" viewBox="0 0 93 93"><defs><style>.cls-1{fill:#5d9e2a;}.cls-2{fill:none;stroke:#5d9e2a;stroke-miterlimit:10;stroke-width:3px;}</style></defs><title>アセット 3</title><g id="レイヤー_2" data-name="レイヤー 2"><g id="レイヤー_1-2" data-name="レイヤー 1"><path class="cls-1" d="M43.77,52.33a1.44,1.44,0,0,0-.41.62l-4,12.56a1,1,0,0,0,.27,1.24,1.12,1.12,0,0,0,.82.34.48.48,0,0,0,.21,0,.31.31,0,0,1,.14,0l12.7-4.12a2.92,2.92,0,0,0,.41-.27L76.79,39.71a1.16,1.16,0,0,0,0-1.65l-8.51-8.58a1.16,1.16,0,0,0-1.65,0l-.82.82V17.06a1.61,1.61,0,0,0-.51-1.24A1.79,1.79,0,0,0,64,15.34H38.76l-.14-.07H35.33a.2.2,0,0,0-.14.07h-.41v.21l-12.9,12.7a.4.4,0,0,0-.14.27h-.07V75.94a1.79,1.79,0,0,0,.48,1.27,1.61,1.61,0,0,0,1.24.51H64a1.67,1.67,0,0,0,1.27-.55,1.93,1.93,0,0,0,.51-1.37V59.33a1.11,1.11,0,0,0-.24-.75q-.24-.27-.79.27l-.82.82q-.55.48-1.41,1.34t-2.37,2.3V72.1H27.3V32.77H38.63q.62,0,.62-.69V20.9H60.18v15Zm.27,10,2.26-7.07L51.05,60Z"/><circle class="cls-2" cx="46.5" cy="46.5" r="45"/></g></g></svg>